PathFileType	4	(X/Y/Z)	21_coords_data.trc
DataRate	CameraRate	NumFrames	NumMarkers	Units	OrigDataRate	OrigDataStartFrame	OrigNumFrames
30.0	30.0	9	21	m	30.0	1	65
Frame#	Time	THUMB_TIP	THUMB_IP	THUMB_MCP	THUMB_CMC	INDEX_TIP	INDEX_DIP	INDEX_PIP	INDEX_MCP	MIDDLE_TIP	MIDDLE_DIP	MIDDLE_PIP	MIDDLE_MCP	RING_TIP	RING_DIP	RING_PIP	RING_MCP	PINKY_TIP	PINKY_DIP	PINKY_PIP	PINKY_MCP	WRIST
X1	Y1	Z1	X2	Y2	Z2	X3	Y3	Z3	X4	Y4	Z4	X5	Y5	Z5	X6	Y6	Z6	X7	Y7	Z7	X8	Y8	Z8	X9	Y9	Z9	X10	Y10	Z10	X11	Y11	Z11	X12	Y12	Z12	X13	Y13	Z13	X14	Y14	Z14	X15	Y15	Z15	X16	Y16	Z16	X17	Y17	Z17	X18	Y18	Z18	X19	Y19	Z19	X20	Y20	Z20	X21	Y21	Z21
0	-2.749317978547796e-18	0.5446173218054313	-0.0031210767378546667	-0.09985394242304041	0.5292773153776791	-0.003914535363136795	-0.11694354821739628	0.4990028557313859	-0.009798750942875634	-0.11274198896681642	0.47746652199180883	-0.023793802204635228	-0.07626987812526692	0.5014176335269575	0.002982701815467559	-0.10655362108239408	0.5165262950116831	-0.001441685602428966	-0.11550644991558018	0.5281912584136679	0.017992231001927816	-0.1263812532354231	0.4968327726597648	0.03492897620865132	-0.1030697083053933	0.5271124227735821	-0.015830321234726163	-0.1141656758266939	0.5206392212253481	-0.007859866756565359	-0.09924691189909224	0.5384231259276352	0.012422754865410446	-0.11028129197591247	0.5093204570406082	0.03488814943920737	-0.08489451133527803	0.534575292841147	0.006250308094463919	-0.09532354073621246	0.5253453666233161	-0.0076680352349628444	-0.08853471307765448	0.5444216575237883	0.0070677083810066765	-0.09479034770293249	0.5204966933657537	0.028773419994813643	-0.07047617472964368	0.5195083596122485	-0.02296748867338294	-0.07661738050297334	0.5334643872785664	-0.01785820173857766	-0.08510999369296363	0.548545492149926	-0.0033135027792052796	-0.08375942824090848	0.5267569723267267	0.012231735644336661	-0.05958321229901026	0.4622830810018609	-0.023011742144276925	-0.051989820119430985
1	0.03333333333333339	0.5451036620981412	-0.0030305583111979173	-0.0999077929005443	0.5294686226309864	-0.004092167089272292	-0.11671310538388802	0.49917567851374467	-0.010033292835512464	-0.1127305733278926	0.47778170793501284	-0.0237546141735685	-0.0760711493878719	0.5014012394215	0.0019423209806053165	-0.10619364243537582	0.5165030866268165	-0.0015505321504820646	-0.1155602954123961	0.5283092996634777	0.017801487355926793	-0.12642871331734173	0.49705308482040345	0.034822262289559314	-0.10304114507388779	0.5197706892196635	-0.019517393558281637	-0.11389676020223805	0.5202096023917306	-0.008119447480424702	-0.09982927355985405	0.5383331101931019	0.01235391772845329	-0.10991834348713342	0.509233841330324	0.03504961230332193	-0.08473330982791355	0.5348273615989234	0.0066421597480319505	-0.09546623414083266	0.5257116362600867	-0.0073486237405832044	-0.08867200652309831	0.5448472681597814	0.007451426582511744	-0.09458521895233185	0.5206450118255942	0.028718892175031208	-0.07015846047714108	0.5190199725154863	-0.0212999439340108	-0.07639514862327679	0.5335359542105864	-0.018252593845349274	-0.084939148439794	0.5485857623454915	-0.0036663387767515987	-0.0836915679107868	0.5269010000967235	0.01198671752597924	-0.05949164300185472	0.4622830810018609	-0.023011742144276925	-0.051989820119430985
2	0.06666666666666676	0.5454820666819887	-0.0029953554974920804	-0.09994436469497331	0.5296278416216114	-0.004263484117799643	-0.11652855588831346	0.4993192082395085	-0.010234219159067748	-0.11271318361601129	0.4780201996939033	-0.0237343469175203	-0.07591659701508191	0.5014317943103657	0.0011389618494990206	-0.10593868894524477	0.5164982095757608	-0.0016537782420553704	-0.11559289703455444	0.5284234427735396	0.017624037759890077	-0.12646324460828606	0.49724629553038113	0.03471994424550695	-0.10302499456240033	0.5093678005133324	-0.020785466510156336	-0.10815474915755113	0.5199111012816867	-0.008333697281690755	-0.10029394436484362	0.5382876802762604	0.012267771349662726	-0.10963687670365235	0.5091945311131041	0.03514895426149389	-0.0846131267583371	0.5348080486897918	0.007027887581730452	-0.09556898271872749	0.5259960861563738	-0.007151160240198129	-0.08876428440262979	0.545178645257594	0.007691210720301989	-0.09441348165525781	0.5207801811650787	0.028650796890875352	-0.06991589949936838	0.5188104817710082	-0.020083751445406084	-0.07629616753353718	0.5335947414291986	-0.018588750981459512	-0.0847926750496878	0.5486273351571506	-0.003977765406527389	-0.08362981420699622	0.5270245684542668	0.011772995137104836	-0.059419951256580006	0.4622830810018609	-0.023011742144276925	-0.051989820119430985
3	0.10000000000000014	0.5457661214136045	-0.0030125242766613214	-0.0999656917060861	0.5297601387536728	-0.00442900252203271	-0.11639134567998788	0.499437750216695	-0.010403741558221657	-0.11269333988469832	0.4781918584128798	-0.02373038873398281	-0.07580292708525466	0.5014838286645795	0.0005456834829316026	-0.10576175475356997	0.5165101079473844	-0.0017520670753522483	-0.115607122866904	0.5285331751578951	0.017459748450628143	-0.12648654528021458	0.4974145848750141	0.034622615642942556	-0.1030194316412269	0.5045433329166764	-0.01833076052751148	-0.10174213767939427	0.5197238645519026	-0.008516017808865906	-0.10063656785406083	0.5382818567894281	0.01216524188788537	-0.10942838060613197	0.5091972692876244	0.03519340036947749	-0.0845298142257837	0.5331502874157046	0.008126046517022645	-0.09562527608564336	0.5262103803667395	-0.00705787304035288	-0.088821874214015	0.5454304165533475	0.007808258029983417	-0.09427791077777303	0.5209027746303766	0.028571712494885326	-0.06974233305108246	0.5187431751257012	-0.019266528173395026	-0.07625007699338882	0.5336409474318647	-0.018870808264198402	-0.08467027806386035	0.5486697639971432	-0.004250770951707783	-0.08357428507638243	0.5271296669312507	0.011588191273395831	-0.059366126430511035	0.462283081001861	-0.023011742144276925	-0.051989820119430985
4	0.13333333333333353	0.5459691911202019	-0.0030765385894148123	-0.09997444478136369	0.5298694673270392	-0.0045886907127524745	-0.1162996489068795	0.4995346697667996	-0.010544337146134453	-0.11267331018306614	0.4783059589825195	-0.023740117624377	-0.07572600695255394	0.5015423076639818	0.00013290869447091236	-0.10564307138290069	0.516536355991802	-0.001845778737178505	-0.11560616883253061	0.5286378159738192	0.01730834516941926	-0.12650038916600737	0.49756026246862695	0.03453079760511335	-0.10302255080230438	0.5034236013024495	-0.016468009382261894	-0.09869746225027465	0.5196284355786606	-0.008675970371291641	-0.10086251978578031	0.5383098416160605	0.012048250412168504	-0.1092839977667644	0.5092362000487508	0.035190575986982386	-0.08447867466858805	0.5146963293102527	-0.019103914125388588	-0.08224901176749622	0.5263643428407649	-0.00705196322085222	-0.08885264256020609	0.5456147004317589	0.007822354458729253	-0.09417790172627144	0.5210135125138698	0.028484162060843476	-0.06963015043125592	0.5187366458808516	-0.018770974938491114	-0.07622010980548527	0.5336749356838864	-0.019103795745153862	-0.08457096174233569	0.5487122669564709	-0.0044888445242119435	-0.0835250707307868	0.5272183532399877	0.011429606182915886	-0.059328003734286705	0.4622830810018609	-0.023011742144276925	-0.051989820119430985
5	0.1666666666666669	0.5461041900192094	-0.0031799955888383025	-0.09997376985546019	0.5299588215656672	-0.0047421024072211715	-0.11624911623540946	0.4996126084842105	-0.010658674652310296	-0.11265446402921891	0.4783713028311264	-0.023760910841685967	-0.07568111767011759	0.5015991506693038	-0.0001284255836222492	-0.10556875139672584	0.5165738490017566	-0.0019350515008972335	-0.1155934465365826	0.5287365760187073	0.01716942787095288	-0.12650659330741337	0.49768574301176505	0.034444945139074035	-0.1030323868949734	0.5031938723360284	-0.015627299257251037	-0.09747971549140116	0.5196064601446246	-0.008819509485280319	-0.10098413553554086	0.5383652636555527	0.011919454107308991	-0.10919463064507318	0.5093050577632003	0.03514839788048085	-0.08445461193697773	0.5159332676483825	-0.020110326749075313	-0.08213729369008582	0.5264666605613186	-0.007117402211339274	-0.0888627338763045	0.5457419577416585	0.007752164066070599	-0.0941104854263789	0.5211132603038763	0.02839057206931761	-0.06957063596454044	0.5187483383179352	-0.018526094407822602	-0.076189951983899	0.5336971910634514	-0.01929343830366481	-0.08449314323415852	0.5487538071764073	-0.004695891567309096	-0.08348222310527315	0.5272927336005538	0.011294278443349959	-0.059303301810020304	0.4622830810018609	-0.023011742144276925	-0.051989820119430985
6	0.20000000000000023	0.5461835763721758	-0.003314272269620111	-0.09996707524221671	0.5300305176166723	-0.0048885299802595705	-0.11623361776058067	0.499673692627038	-0.01074955198413885	-0.11263756469941055	0.47839634266073694	-0.023790146959050462	-0.07566315109876148	0.501650588814565	-0.00026598536550637153	-0.10552903176424794	0.516618995748342	-0.0020198232020187668	-0.11557247971343704	0.5288286097475643	0.017042485621557746	-0.12650699119336156	0.4977935241581457	0.03436545406110825	-0.10304693320324138	0.5031804968820184	-0.015431643108288928	-0.09713967068323737	0.5196407678200745	-0.008949722844990404	-0.10101835478303517	0.5384413931567984	0.011782028915249154	-0.1091510361305329	0.5093973367062314	0.03507497986716768	-0.08445226810765788	0.5161433692225916	-0.02034354835293739	-0.08211351179108084	0.5265253917847257	-0.0072387242497666815	-0.0888571897745179	0.5458216495558347	0.00761553144109417	-0.09407116166756169	0.5212030268041317	0.028293246870555677	-0.06955430354039638	0.5187588024489098	-0.018474088047396364	-0.07615413745718957	0.5337082614053392	-0.01944596344668037	-0.08443478568775087	0.5487931695123178	-0.004876153172954423	-0.08344574828115897	0.5273549466986192	0.011179041418112212	-0.05928965629107902	0.4622830810018608	-0.023011742144276925	-0.051989820119430985
7	0.23333333333333361	0.5462194705237342	-0.003470090941672721	-0.09995783904130956	0.5300864653578514	-0.0050271549485153555	-0.11624592352034502	0.4997197202574314	-0.010819845304755882	-0.11262300612647203	0.4783893025879764	-0.023825204571917613	-0.07566676291400992	0.5016953077218396	-0.0003062327167072665	-0.10551663948240914	0.5166678942240837	-0.0020998820227151604	-0.11554681772608316	0.5289130569264215	0.016926911463672867	-0.12650341176892405	0.4978861669934297	0.03429266820705956	-0.10306415649458717	0.5032476538156321	-0.015664858279738403	-0.09733782811363556	0.5197151184529739	-0.009067759839516132	-0.10098486808982376	0.5385313210845921	0.011639489990557417	-0.1091439043687481	0.509506434868013	0.03497855322328769	-0.08446614052083729	0.5160707569626644	-0.020427696269232576	-0.08209350700954665	0.5265483354649707	-0.007400839704328699	-0.08884045867421925	0.5458627434051806	0.007429758421198751	-0.09405457261220096	0.5212839601829333	0.028194355882172006	-0.06957119576999393	0.5187612387862728	-0.018568016571473	-0.07611260907655704	0.533708696146399	-0.01956792925872075	-0.08439353252053883	0.5488290274261706	-0.005034132337926933	-0.08341560202449877	0.5274071509729945	0.01108057345756841	-0.05928464851351012	0.4622830810018609	-0.023011742144276925	-0.051989820119430985
7	0.2666666666666655	0.5462238112723014	-0.0036379725298441024	-0.09994947232344198	0.5301284035267968	-0.005157178353988101	-0.11627827703076316	0.49975231877554527	-0.010872469288034203	-0.11261099946777448	0.47835828318082063	-0.02386346023742003	-0.07568649005837763	0.5017331566365135	-0.0002749838766527013	-0.10552545507222694	0.5167164770408166	-0.0021749171281129076	-0.11551997173397671	0.5289890723639514	0.01682201697396246	-0.12649766419441555	0.4979662793480376	0.03422688666388762	-0.1030820087782523	0.5033893042802718	-0.01621697279637091	-0.09796748949420458	0.5198138368312728	-0.009173720633548155	-0.10090472109079351	0.538628101279782	0.011495547647627169	-0.10916391911374718	0.5096257673560228	0.03486740224807028	-0.08449067529558424	0.5156896576550607	-0.020310010036557413	-0.08208097070290243	0.5265432987366517	-0.007588881402161407	-0.088816797418247	0.5458740960684298	0.007211834565797992	-0.09405502806928928	0.5213573408700103	0.02809593047366077	-0.06961113135350422	0.5187551241373209	-0.01876713892051185	-0.07606786710129049	0.5336989907553191	-0.019666080614099246	-0.08436682814078239	0.5488599957557747	-0.005174529667997696	-0.08339168838018335	0.5274515149315941	0.010995440482184926	-0.05928582881984196	0.462283081001861	-0.023011742144276925	-0.051989820119430985
